/* XPM */
const static char * ellipse[] = {
"16 16 93 2",
"  	c None",
". 	c #C15A7C",
"+ 	c #CE2C52",
"@ 	c #D5236F",
"# 	c #D55271",
"$ 	c #CF758A",
"% 	c #BD6479",
"& 	c #A52E4A",
"* 	c #B61252",
"= 	c #C8275C",
"- 	c #D74164",
"; 	c #D86580",
"> 	c #EB6383",
", 	c #D47D91",
"' 	c #8E3147",
") 	c #94243E",
"! 	c #D41B55",
"~ 	c #D63076",
"{ 	c #ED6786",
"] 	c #E882A5",
"^ 	c #E593BC",
"/ 	c #CBA7AF",
"( 	c #F5829C",
"_ 	c #AF2F54",
": 	c #7E103D",
"< 	c #9E2040",
"[ 	c #D5264E",
"} 	c #D74672",
"| 	c #D87491",
"1 	c #D3B4BB",
"2 	c #F9BBCA",
"3 	c #F8BAC9",
"4 	c #E89BB8",
"5 	c #D28597",
"6 	c #792035",
"7 	c #7D0E37",
"8 	c #9E1E42",
"9 	c #D7467C",
"0 	c #E27497",
"a 	c #FBA3CF",
"b 	c #E0CCD0",
"c 	c #E7C9D0",
"d 	c #C996B8",
"e 	c #E5839A",
"f 	c #610C37",
"g 	c #691D26",
"h 	c #D41E54",
"i 	c #D63672",
"j 	c #EB738F",
"k 	c #D987A6",
"l 	c #E29FAF",
"m 	c #FA95AC",
"n 	c #E78BA1",
"o 	c #D66D86",
"p 	c #6E213C",
"q 	c #660535",
"r 	c #921A39",
"s 	c #AC2041",
"t 	c #D52B5A",
"u 	c #D7436A",
"v 	c #F57290",
"w 	c #E77498",
"x 	c #D1769E",
"y 	c #D86A84",
"z 	c #8D324E",
"A 	c #611132",
"B 	c #78103C",
"C 	c #A62140",
"D 	c #C71D54",
"E 	c #E1477C",
"F 	c #DC4790",
"G 	c #E43273",
"H 	c #D44B7F",
"I 	c #600F1B",
"J 	c #7C0F44",
"K 	c #D5264F",
"L 	c #D52358",
"M 	c #D44A6A",
"N 	c #B05C70",
"O 	c #73162B",
"P 	c #5F1A33",
"Q 	c #78123C",
"R 	c #8F1A3E",
"S 	c #93213F",
"T 	c #A9214C",
"U 	c #B14A62",
"V 	c #9C3E54",
"W 	c #703B47",
"X 	c #711D31",
"Y 	c #611539",
"Z 	c #87213F",
"` 	c #9B264E",
" .	c #BE2870",
"                                ",
"                                ",
"          . + @ # $             ",
"      % & * = - ; > ,           ",
"      ' ) ! ~ { ] ^ / (         ",
"    _ : < [ } | 1 2 3 4 5       ",
"    6 7 8 [ 9 0 a b c d e       ",
"    f g ) h i j k l m n o       ",
"    p q r s t u v w x y }       ",
"    z A B C D t i E F G H       ",
"      B I J C s h K K L M       ",
"      N O P Q R S 8 T U         ",
"        V W X Y Z `  .          ",
"                                ",
"                                ",
"                                "};
