/* XPM */
const static char* tube[] = {
"16 16 8 1",
"  c None",
"! c #000000",
"# c #008000",
"$ c #008100",
"% c #003300",
"& c #006600",
"' c #009900",
"( c #00CC00",
"             '($",
"            #(( ",
"           &(($ ",
"          &(('  ",
"         &(('   ",
"        &(('    ",
"       #(('     ",
"      #(($      ",
"     #(($       ",
"    $(($        ",
"  &'(($         ",
"##'(($          ",
"'(((#           ",
"('$&            ",
"%%              ",
"                "};

