/* XPM */
const static char* tube_net[] = {
"16 16 11 1",
"  c None",
"! c #000000",
"# c #800000",
"$ c #040404",
"% c #080808",
"& c #810000",
"' c #330000",
"( c #660000",
") c #990000",
"* c #CC0000",
"+ c #FF0000",
"      &)  *     ",
"     )*+)**)    ",
"    &***)*))**  ",
"    )**( +) '***",
"   &**(  *)   *)",
"   )*(   +)   * ",
"*+(*)    *)   ((",
"  &*(    *)  '**",
"(*))     *)  **!",
"')*'     **(*)$)",
"'**      *****))",
"#+** *  **))  $'",
"*( **( *$* +    ",
")   )%)'(*  *   ",
"*    #* *)  #)  ",
"))      *)   *  "};

